<svg xmlns="http://www.w3.org/2000/svg" class="icon" viewBox="0 0 1024 1024">
  <defs>
    <radialGradient id="water" cx="50%" cy="50%" r="50%" fx="50%" fy="50%">
      <stop offset="0%" style="stop-color:#4fc3f7;stop-opacity:0.8"/>
      <stop offset="100%" style="stop-color:#0288d1;stop-opacity:0.4"/>
    </radialGradient>
  </defs>
  
  <style>
    @keyframes float {
      0%, 100% { transform: translate(0, 0) rotate(0deg); }
      25% { transform: translate(10px, -10px) rotate(2deg); }
      50% { transform: translate(0, -20px) rotate(0deg); }
      75% { transform: translate(-10px, -10px) rotate(-2deg); }
    }
    @keyframes colorChange {
      0%, 100% { fill: #ffefe0; }
      50% { fill: #ffe0b2; }
    }
    @keyframes eyeBlink {
      0%, 90%, 100% { transform: scaleY(1); }
      95% { transform: scaleY(0.1); }
    }
    @keyframes waterWave {
      0%, 100% { transform: translateY(0); }
      50% { transform: translateY(-10px); }
    }
    @keyframes textGlow {
      0%, 100% { text-shadow: 0 0 5px #f79764, 0 0 10px #f79764, 0 0 15px #f79764; }
      50% { text-shadow: 0 0 10px #f79764, 0 0 20px #f79764, 0 0 30px #f79764; }
    }
    .duck-body {
      animation: float 6s ease-in-out infinite, colorChange 5s linear infinite alternate;
    }
    .eye {
      fill: #333;
      transform-origin: center;
      animation: eyeBlink 4s infinite;
    }
    .water {
      animation: waterWave 3s ease-in-out infinite;
    }
    .text {
      font-family: 'Arial', sans-serif;
      font-size: 48px;
      font-weight: bold;
      fill: #f79764;
      animation: textGlow 2s ease-in-out infinite;
    }
    .bubble {
      opacity: 0.7;
      animation: float 4s ease-in-out infinite;
    }
  </style>
  
  <!-- Вода -->
  <ellipse class="water" cx="512" cy="900" rx="450" ry="60" fill="url(#water)"/>
  
  <!-- Утка -->
  <g class="duck-body">
    <path d="M913.88 548.4c-66.14 35.43-141.83-7.68-141.83-7.68-112.76-53.91-246.31-55.82-246.31-55.82-34.09-2.34-25.47-17.51-20.69-25.88.73-1.27 1.74-2.36 2.59-3.56a187.06 187.06 0 0 0 34.17-108.08c0-103.78-84.13-187.92-187.92-187.92C251 159.47 167.37 242.24 166 344.87c-1 3.81-42.28 9.32-73-5.06-40-18.71-25.08 73.65 42.35 95.45l-2.31-.1c-28.06-1.52-30.8 7.68-30.8 7.68s-16.14 29.75 83.13 38.37c31.39 2.72 35.71 8.11 42 16.64 11.92 16.14 3.57 39.25-12.15 59-44.53 55.77-71.84 180.68 49.78 270.85 103.12 76.47 377.65 79.95 497.37-15.13 108-85.76 156.72-170.47 185.79-241.14 3.9-9.54 31.84-58.43-34.28-23.03z"/>
    <path fill="#f79764" d="M497.6 892c-45.54 0-90.26-4.72-129.91-13.76-44.48-10.13-81.54-25.54-107.18-44.55-51.15-37.93-81.9-86.48-88.93-140.4-7.75-59.47 14.44-111.93 37.79-141.21 5.94-7.45 24.37-33.06 12-49.83-5.31-7.2-8.24-11.16-36.63-13.62-49.83-4.32-79.54-14.77-88.3-31A20 20 0 0 1 95.31 440c1-2.48 3.9-7 12.58-9.9-25-17-39.75-43.45-43.46-65.14-2.49-14.57.26-25.73 7.75-31.43 4.34-3.31 12-6.08 24-.48 22.57 10.56 52.33 9.36 62.45 7.08A195.41 195.41 0 0 1 353.9 152c107.75 0 195.42 87.66 195.42 195.42a194.18 194.18 0 0 1-35.54 112.4c-.39.55-.8 1.09-1.22 1.62a14.24 14.24 0 0 0-1 1.35c-1.33 2.32-4.44 7.76-3.45 9.6.09.16 2.3 4 18 5.07 3.19.06 35.67.78 81.68 7.77 43.83 6.66 108.47 20.53 167.55 48.77l.48.25c.72.41 73 40.58 134.58 7.58l3.54 6.61-3.54-6.61c26.78-14.35 41.69-17.16 49.86-9.43 10 9.45 1.46 27.71-3.64 38.63-.64 1.38-1.2 2.56-1.5 3.3C930.2 634.73 883.66 725.8 767 818.44c-29.48 23.42-68.66 41.78-116.44 54.6-43.33 11.62-92.79 18.16-143 18.92q-4.99.04-9.96.04z"/>
    <circle class="eye" cx="300" cy="300" r="20"/>
  </g>
  
  <!-- Пузыри -->
  <circle class="bubble" cx="200" cy="800" r="10" fill="#ffffff"/>
  <circle class="bubble" cx="250" cy="830" r="8" fill="#ffffff"/>
  <circle class="bubble" cx="300" cy="810" r="12" fill="#ffffff"/>
  
  <!-- Текст -->
  <text class="text" x="512" y="980" text-anchor="middle">Ilya - Frontend Dev</text>
</svg>
